<svg width="621" height="760" viewBox="0 0 621 760" fill="none" xmlns="http://www.w3.org/2000/svg">
<path opacity="0.5" d="M318.343 -314.306C198.405 -213.783 179.819 -23.7024 98.5892 116.527C70.3124 165.322 33.7749 208.992 14.7119 263.123C-29.0536 387.026 31.1802 527.572 111.801 625.981C150.245 672.927 195.149 715.936 249.478 735.723C291.258 750.94 336.056 751.574 380.033 751.971L1150.5 759.896C1236.52 760.768 1332.1 757.624 1393.95 691.208C1436.57 645.478 1453.89 578.692 1468.58 514.944C1486.64 436.613 1503 351.546 1474.91 276.94C1442.82 191.582 1361.67 143.21 1311.26 69.5548C1229.45 -49.7775 1231.33 -230.269 1127.14 -325.534C1078.51 -369.996 1014.33 -387.432 951.792 -396.15C833.892 -412.609 722.215 -381.541 606.433 -385.873C507.464 -389.572 400.447 -383.126 318.343 -314.306Z" fill="#B076A9"/>
</svg>
