<svg width="428" height="1161" viewBox="0 0 428 1161" fill="none" xmlns="http://www.w3.org/2000/svg">
<path opacity="0.5" d="M-744.657 86.6942C-864.595 187.217 -883.181 377.298 -964.411 517.527C-992.688 566.322 -1029.23 609.992 -1048.29 664.123C-1092.05 788.026 -1031.82 928.572 -951.199 1026.98C-912.755 1073.93 -867.851 1116.94 -813.522 1136.72C-771.742 1151.94 -726.944 1152.57 -682.967 1152.97L87.4971 1160.9C173.519 1161.77 269.099 1158.62 330.948 1092.21C373.575 1046.48 390.89 979.692 405.585 915.944C423.642 837.613 440.004 752.546 411.913 677.94C379.823 592.582 298.673 544.21 248.262 470.555C166.45 351.223 168.33 170.731 64.1449 75.4664C15.5077 31.0041 -48.6711 13.5679 -111.208 4.84978C-229.108 -11.6089 -340.785 19.4592 -456.567 15.1266C-555.536 11.428 -662.553 17.8741 -744.657 86.6942Z" fill="#B076A9"/>
</svg>
